M48
;DRILL file {KiCad 4.0.7} date 04/04/18 17:14:36
;FORMAT={-:-/ absolute / metric / decimal}
FMAT,2
METRIC,TZ
T1C0.400
T2C0.533
T3C0.650
T4C1.016
%
G90
G05
M71
T1
X133.Y-110.5
X142.5Y-110.5
X151.Y-106.
T2
X150.05Y-108.15
X150.425Y-110.8
X150.825Y-109.475
X151.15Y-108.15
X151.525Y-110.8
X151.925Y-109.475
X152.25Y-108.15
X152.625Y-110.8
X153.025Y-109.475
X153.35Y-108.15
X153.725Y-110.8
X154.1Y-108.95
X154.475Y-110.
X154.85Y-108.15
X155.225Y-110.8
X156.325Y-110.8
X156.7Y-108.15
X157.075Y-110.
X157.45Y-108.95
X157.825Y-110.8
X158.2Y-108.15
X158.525Y-109.475
X158.925Y-110.8
X159.3Y-108.15
X159.625Y-109.475
X160.025Y-110.8
X160.4Y-108.15
X160.725Y-109.475
X161.125Y-110.8
X161.5Y-108.15
T4
X126.Y-107.96
X126.Y-110.5
T3
X147.275Y-108.35G85X147.275Y-110.6
G05
X164.275Y-108.35G85X164.275Y-110.6
G05
T0
M30
