M48
;DRILL file {KiCad 4.0.6} date 04/04/18 14:54:18
;FORMAT={-:-/ absolute / inch / decimal}
FMAT,2
INCH,TZ
T1C0.016
T2C0.021
T3C0.026
T4C0.040
%
G90
G05
M72
T1
X5.2362Y-4.3504
X5.6102Y-4.3504
X5.9449Y-4.1732
T2
X5.9075Y-4.2579
X5.9222Y-4.3622
X5.938Y-4.31
X5.9508Y-4.2579
X5.9656Y-4.3622
X5.9813Y-4.31
X5.9941Y-4.2579
X6.0089Y-4.3622
X6.0246Y-4.31
X6.0374Y-4.2579
X6.0522Y-4.3622
X6.0669Y-4.2894
X6.0817Y-4.3307
X6.0965Y-4.2579
X6.1112Y-4.3622
X6.1545Y-4.3622
X6.1693Y-4.2579
X6.1841Y-4.3307
X6.1988Y-4.2894
X6.2136Y-4.3622
X6.2283Y-4.2579
X6.2411Y-4.31
X6.2569Y-4.3622
X6.2717Y-4.2579
X6.2844Y-4.31
X6.3002Y-4.3622
X6.315Y-4.2579
X6.3278Y-4.31
X6.3435Y-4.3622
X6.3583Y-4.2579
T4
X4.9606Y-4.2504
X4.9606Y-4.3504
T3
X5.7982Y-4.2657G85X5.7982Y-4.3543
G05
X6.4675Y-4.2657G85X6.4675Y-4.3543
G05
T0
M30
