G04 #@! TF.FileFunction,Copper,L2,Bot,Signal*
%FSLAX46Y46*%
G04 Gerber Fmt 4.6, Leading zero omitted, Abs format (unit mm)*
G04 Created by KiCad (PCBNEW 4.0.6) date 04/04/18 14:53:54*
%MOMM*%
%LPD*%
G01*
G04 APERTURE LIST*
%ADD10C,0.100000*%
%ADD11C,0.939800*%
%ADD12O,1.000000X3.300000*%
%ADD13C,1.524000*%
%ADD14C,0.600000*%
%ADD15C,0.250000*%
%ADD16C,0.254000*%
G04 APERTURE END LIST*
D10*
D11*
X154850001Y-108150000D03*
X153350001Y-108150000D03*
X152250001Y-108150000D03*
X151150001Y-108150000D03*
X150050001Y-108150000D03*
X156700001Y-108150000D03*
X158200001Y-108150000D03*
X159300001Y-108150000D03*
X160400001Y-108150000D03*
X161500001Y-108150000D03*
X155225001Y-110800000D03*
X156325001Y-110800000D03*
X153725001Y-110800000D03*
X152625001Y-110800000D03*
X151525001Y-110800000D03*
X150425001Y-110800000D03*
X157825001Y-110800000D03*
X158925001Y-110800000D03*
X160025001Y-110800000D03*
X161125001Y-110800000D03*
X154100001Y-108950000D03*
X154475001Y-110000000D03*
X157450001Y-108950000D03*
X157075001Y-110000000D03*
X153025001Y-109475000D03*
X151925001Y-109475000D03*
X150825001Y-109475000D03*
X158525001Y-109475000D03*
X159625001Y-109475000D03*
X160725001Y-109475000D03*
D12*
X164275001Y-109475000D03*
X147275001Y-109475000D03*
D13*
X126000000Y-107960000D03*
X126000000Y-110500000D03*
D14*
X133000000Y-110500000D03*
X142500000Y-110500000D03*
X151000000Y-106000000D03*
D15*
X152000000Y-106750000D02*
X151250000Y-106000000D01*
X152000000Y-106750000D02*
X152250000Y-107000000D01*
X153500000Y-107000000D02*
X154100000Y-107600000D01*
X152250000Y-107000000D02*
X153500000Y-107000000D01*
X154100000Y-108949999D02*
X154100000Y-107600000D01*
X151250000Y-106000000D02*
X151000000Y-106000000D01*
X154100001Y-108950000D02*
X154100000Y-108949999D01*
D16*
G36*
X166373000Y-115873000D02*
X123627000Y-115873000D01*
X123627000Y-110705763D01*
X124960820Y-110705763D01*
X125118665Y-111087777D01*
X125410685Y-111380308D01*
X125792423Y-111538819D01*
X126205763Y-111539180D01*
X126587777Y-111381335D01*
X126880308Y-111089315D01*
X127038819Y-110707577D01*
X127039180Y-110294237D01*
X126881335Y-109912223D01*
X126692443Y-109723000D01*
X146140001Y-109723000D01*
X146140001Y-110873000D01*
X146321303Y-111288468D01*
X146647797Y-111602929D01*
X146856792Y-111680142D01*
X147027001Y-111569225D01*
X147027001Y-109723000D01*
X147523001Y-109723000D01*
X147523001Y-111569225D01*
X147693210Y-111680142D01*
X147828936Y-111629998D01*
X149927273Y-111629998D01*
X149967474Y-111829453D01*
X150396256Y-111926179D01*
X150829414Y-111851454D01*
X150882528Y-111829453D01*
X150922729Y-111629998D01*
X160627273Y-111629998D01*
X160667474Y-111829453D01*
X161096256Y-111926179D01*
X161529414Y-111851454D01*
X161582528Y-111829453D01*
X161622729Y-111629998D01*
X161125001Y-111132269D01*
X160627273Y-111629998D01*
X150922729Y-111629998D01*
X150425001Y-111132269D01*
X149927273Y-111629998D01*
X147828936Y-111629998D01*
X147902205Y-111602929D01*
X148228699Y-111288468D01*
X148410001Y-110873000D01*
X148410001Y-110771255D01*
X149298822Y-110771255D01*
X149373547Y-111204413D01*
X149395548Y-111257527D01*
X149595003Y-111297728D01*
X150092732Y-110800000D01*
X149595003Y-110302272D01*
X149395548Y-110342473D01*
X149298822Y-110771255D01*
X148410001Y-110771255D01*
X148410001Y-109723000D01*
X147523001Y-109723000D01*
X147027001Y-109723000D01*
X146140001Y-109723000D01*
X126692443Y-109723000D01*
X126589315Y-109619692D01*
X126207577Y-109461181D01*
X125794237Y-109460820D01*
X125412223Y-109618665D01*
X125119692Y-109910685D01*
X124961181Y-110292423D01*
X124960820Y-110705763D01*
X123627000Y-110705763D01*
X123627000Y-109012941D01*
X125297784Y-109012941D01*
X125376201Y-109240509D01*
X125913714Y-109381753D01*
X126464364Y-109306549D01*
X126623799Y-109240509D01*
X126702216Y-109012941D01*
X126000000Y-108310725D01*
X125297784Y-109012941D01*
X123627000Y-109012941D01*
X123627000Y-107873714D01*
X124578247Y-107873714D01*
X124653451Y-108424364D01*
X124719491Y-108583799D01*
X124947059Y-108662216D01*
X125649275Y-107960000D01*
X126350725Y-107960000D01*
X127052941Y-108662216D01*
X127280509Y-108583799D01*
X127413682Y-108077000D01*
X146140001Y-108077000D01*
X146140001Y-109227000D01*
X147027001Y-109227000D01*
X147027001Y-107380775D01*
X147523001Y-107380775D01*
X147523001Y-109227000D01*
X148410001Y-109227000D01*
X148410001Y-108979998D01*
X149552273Y-108979998D01*
X149592474Y-109179453D01*
X149750944Y-109215201D01*
X149698822Y-109446255D01*
X149773547Y-109879413D01*
X149795548Y-109932527D01*
X149929389Y-109959503D01*
X149927273Y-109970002D01*
X150343682Y-110386412D01*
X150367474Y-110504453D01*
X150549534Y-110545523D01*
X150778123Y-110774112D01*
X150778119Y-110779151D01*
X150757270Y-110800000D01*
X150778082Y-110820812D01*
X150777971Y-110947916D01*
X150891440Y-111222532D01*
X151101364Y-111432822D01*
X151375782Y-111546770D01*
X151672917Y-111547030D01*
X151947533Y-111433561D01*
X152075039Y-111306277D01*
X152201364Y-111432822D01*
X152475782Y-111546770D01*
X152772917Y-111547030D01*
X153047533Y-111433561D01*
X153175039Y-111306277D01*
X153301364Y-111432822D01*
X153575782Y-111546770D01*
X153872917Y-111547030D01*
X154147533Y-111433561D01*
X154357823Y-111223637D01*
X154471771Y-110949219D01*
X154471948Y-110746898D01*
X154478147Y-110746903D01*
X154477971Y-110947916D01*
X154591440Y-111222532D01*
X154801364Y-111432822D01*
X155075782Y-111546770D01*
X155372917Y-111547030D01*
X155647533Y-111433561D01*
X155775039Y-111306277D01*
X155901364Y-111432822D01*
X156175782Y-111546770D01*
X156472917Y-111547030D01*
X156747533Y-111433561D01*
X156957823Y-111223637D01*
X157071771Y-110949219D01*
X157071948Y-110746898D01*
X157078147Y-110746903D01*
X157077971Y-110947916D01*
X157191440Y-111222532D01*
X157401364Y-111432822D01*
X157675782Y-111546770D01*
X157972917Y-111547030D01*
X158247533Y-111433561D01*
X158375039Y-111306277D01*
X158501364Y-111432822D01*
X158775782Y-111546770D01*
X159072917Y-111547030D01*
X159347533Y-111433561D01*
X159475039Y-111306277D01*
X159601364Y-111432822D01*
X159875782Y-111546770D01*
X160172917Y-111547030D01*
X160447533Y-111433561D01*
X160657823Y-111223637D01*
X160771771Y-110949219D01*
X160771883Y-110820849D01*
X160792732Y-110800000D01*
X161457270Y-110800000D01*
X161954999Y-111297728D01*
X162154454Y-111257527D01*
X162251180Y-110828745D01*
X162176455Y-110395587D01*
X162154454Y-110342473D01*
X161954999Y-110302272D01*
X161457270Y-110800000D01*
X160792732Y-110800000D01*
X160771920Y-110779188D01*
X160771924Y-110774067D01*
X160996630Y-110549361D01*
X161129414Y-110526454D01*
X161182528Y-110504453D01*
X161206320Y-110386412D01*
X161622729Y-109970002D01*
X161620613Y-109959503D01*
X161754454Y-109932527D01*
X161801719Y-109723000D01*
X163140001Y-109723000D01*
X163140001Y-110873000D01*
X163321303Y-111288468D01*
X163647797Y-111602929D01*
X163856792Y-111680142D01*
X164027001Y-111569225D01*
X164027001Y-109723000D01*
X164523001Y-109723000D01*
X164523001Y-111569225D01*
X164693210Y-111680142D01*
X164902205Y-111602929D01*
X165228699Y-111288468D01*
X165410001Y-110873000D01*
X165410001Y-109723000D01*
X164523001Y-109723000D01*
X164027001Y-109723000D01*
X163140001Y-109723000D01*
X161801719Y-109723000D01*
X161851180Y-109503745D01*
X161802077Y-109219108D01*
X161904414Y-109201454D01*
X161957528Y-109179453D01*
X161997729Y-108979998D01*
X161500001Y-108482269D01*
X161476631Y-108505640D01*
X161146879Y-108175888D01*
X161146883Y-108170849D01*
X161167732Y-108150000D01*
X161832270Y-108150000D01*
X162329999Y-108647728D01*
X162529454Y-108607527D01*
X162626180Y-108178745D01*
X162608628Y-108077000D01*
X163140001Y-108077000D01*
X163140001Y-109227000D01*
X164027001Y-109227000D01*
X164027001Y-107380775D01*
X164523001Y-107380775D01*
X164523001Y-109227000D01*
X165410001Y-109227000D01*
X165410001Y-108077000D01*
X165228699Y-107661532D01*
X164902205Y-107347071D01*
X164693210Y-107269858D01*
X164523001Y-107380775D01*
X164027001Y-107380775D01*
X163856792Y-107269858D01*
X163647797Y-107347071D01*
X163321303Y-107661532D01*
X163140001Y-108077000D01*
X162608628Y-108077000D01*
X162551455Y-107745587D01*
X162529454Y-107692473D01*
X162329999Y-107652272D01*
X161832270Y-108150000D01*
X161167732Y-108150000D01*
X161146920Y-108129188D01*
X161147031Y-108002084D01*
X161033562Y-107727468D01*
X160823638Y-107517178D01*
X160549220Y-107403230D01*
X160252085Y-107402970D01*
X159977469Y-107516439D01*
X159849963Y-107643723D01*
X159723638Y-107517178D01*
X159449220Y-107403230D01*
X159152085Y-107402970D01*
X158877469Y-107516439D01*
X158749963Y-107643723D01*
X158623638Y-107517178D01*
X158349220Y-107403230D01*
X158052085Y-107402970D01*
X157777469Y-107516439D01*
X157567179Y-107726363D01*
X157453231Y-108000781D01*
X157453054Y-108203102D01*
X157446855Y-108203097D01*
X157447031Y-108002084D01*
X157333562Y-107727468D01*
X157123638Y-107517178D01*
X156849220Y-107403230D01*
X156552085Y-107402970D01*
X156277469Y-107516439D01*
X156067179Y-107726363D01*
X155953231Y-108000781D01*
X155952971Y-108297916D01*
X156066440Y-108572532D01*
X156276364Y-108782822D01*
X156550782Y-108896770D01*
X156703147Y-108896903D01*
X156702971Y-109097916D01*
X156790378Y-109309456D01*
X156652469Y-109366439D01*
X156442179Y-109576363D01*
X156328231Y-109850781D01*
X156328054Y-110053102D01*
X156177085Y-110052970D01*
X155902469Y-110166439D01*
X155774963Y-110293723D01*
X155648638Y-110167178D01*
X155374220Y-110053230D01*
X155221855Y-110053097D01*
X155222031Y-109852084D01*
X155108562Y-109577468D01*
X154898638Y-109367178D01*
X154759496Y-109309401D01*
X154846771Y-109099219D01*
X154846948Y-108896898D01*
X154997917Y-108897030D01*
X155272533Y-108783561D01*
X155482823Y-108573637D01*
X155596771Y-108299219D01*
X155597031Y-108002084D01*
X155483562Y-107727468D01*
X155273638Y-107517178D01*
X154999220Y-107403230D01*
X154702085Y-107402970D01*
X154480981Y-107494328D01*
X154471400Y-107446161D01*
X154387103Y-107320002D01*
X161002273Y-107320002D01*
X161500001Y-107817731D01*
X161997729Y-107320002D01*
X161957528Y-107120547D01*
X161528746Y-107023821D01*
X161095588Y-107098546D01*
X161042474Y-107120547D01*
X161002273Y-107320002D01*
X154387103Y-107320002D01*
X154384257Y-107315743D01*
X153784257Y-106715743D01*
X153653839Y-106628600D01*
X153500000Y-106598000D01*
X152416514Y-106598000D01*
X151534257Y-105715743D01*
X151496414Y-105690457D01*
X151489442Y-105673583D01*
X151327271Y-105511129D01*
X151115276Y-105423100D01*
X150885731Y-105422900D01*
X150673583Y-105510558D01*
X150511129Y-105672729D01*
X150423100Y-105884724D01*
X150422900Y-106114269D01*
X150510558Y-106326417D01*
X150672729Y-106488871D01*
X150884724Y-106576900D01*
X151114269Y-106577100D01*
X151216390Y-106534904D01*
X151965743Y-107284257D01*
X152096161Y-107371400D01*
X152250000Y-107402000D01*
X153333486Y-107402000D01*
X153334572Y-107403086D01*
X153202085Y-107402970D01*
X152927469Y-107516439D01*
X152799963Y-107643723D01*
X152673638Y-107517178D01*
X152399220Y-107403230D01*
X152102085Y-107402970D01*
X151827469Y-107516439D01*
X151699963Y-107643723D01*
X151573638Y-107517178D01*
X151299220Y-107403230D01*
X151002085Y-107402970D01*
X150727469Y-107516439D01*
X150517179Y-107726363D01*
X150403231Y-108000781D01*
X150403119Y-108129151D01*
X150382270Y-108150000D01*
X150403082Y-108170812D01*
X150403078Y-108175933D01*
X150073371Y-108505640D01*
X150050001Y-108482269D01*
X149552273Y-108979998D01*
X148410001Y-108979998D01*
X148410001Y-108121255D01*
X148923822Y-108121255D01*
X148998547Y-108554413D01*
X149020548Y-108607527D01*
X149220003Y-108647728D01*
X149717732Y-108150000D01*
X149220003Y-107652272D01*
X149020548Y-107692473D01*
X148923822Y-108121255D01*
X148410001Y-108121255D01*
X148410001Y-108077000D01*
X148228699Y-107661532D01*
X147902205Y-107347071D01*
X147828937Y-107320002D01*
X149552273Y-107320002D01*
X150050001Y-107817731D01*
X150547729Y-107320002D01*
X150507528Y-107120547D01*
X150078746Y-107023821D01*
X149645588Y-107098546D01*
X149592474Y-107120547D01*
X149552273Y-107320002D01*
X147828937Y-107320002D01*
X147693210Y-107269858D01*
X147523001Y-107380775D01*
X147027001Y-107380775D01*
X146856792Y-107269858D01*
X146647797Y-107347071D01*
X146321303Y-107661532D01*
X146140001Y-108077000D01*
X127413682Y-108077000D01*
X127421753Y-108046286D01*
X127346549Y-107495636D01*
X127280509Y-107336201D01*
X127052941Y-107257784D01*
X126350725Y-107960000D01*
X125649275Y-107960000D01*
X124947059Y-107257784D01*
X124719491Y-107336201D01*
X124578247Y-107873714D01*
X123627000Y-107873714D01*
X123627000Y-106907059D01*
X125297784Y-106907059D01*
X126000000Y-107609275D01*
X126702216Y-106907059D01*
X126623799Y-106679491D01*
X126086286Y-106538247D01*
X125535636Y-106613451D01*
X125376201Y-106679491D01*
X125297784Y-106907059D01*
X123627000Y-106907059D01*
X123627000Y-103127000D01*
X166373000Y-103127000D01*
X166373000Y-115873000D01*
X166373000Y-115873000D01*
G37*
X166373000Y-115873000D02*
X123627000Y-115873000D01*
X123627000Y-110705763D01*
X124960820Y-110705763D01*
X125118665Y-111087777D01*
X125410685Y-111380308D01*
X125792423Y-111538819D01*
X126205763Y-111539180D01*
X126587777Y-111381335D01*
X126880308Y-111089315D01*
X127038819Y-110707577D01*
X127039180Y-110294237D01*
X126881335Y-109912223D01*
X126692443Y-109723000D01*
X146140001Y-109723000D01*
X146140001Y-110873000D01*
X146321303Y-111288468D01*
X146647797Y-111602929D01*
X146856792Y-111680142D01*
X147027001Y-111569225D01*
X147027001Y-109723000D01*
X147523001Y-109723000D01*
X147523001Y-111569225D01*
X147693210Y-111680142D01*
X147828936Y-111629998D01*
X149927273Y-111629998D01*
X149967474Y-111829453D01*
X150396256Y-111926179D01*
X150829414Y-111851454D01*
X150882528Y-111829453D01*
X150922729Y-111629998D01*
X160627273Y-111629998D01*
X160667474Y-111829453D01*
X161096256Y-111926179D01*
X161529414Y-111851454D01*
X161582528Y-111829453D01*
X161622729Y-111629998D01*
X161125001Y-111132269D01*
X160627273Y-111629998D01*
X150922729Y-111629998D01*
X150425001Y-111132269D01*
X149927273Y-111629998D01*
X147828936Y-111629998D01*
X147902205Y-111602929D01*
X148228699Y-111288468D01*
X148410001Y-110873000D01*
X148410001Y-110771255D01*
X149298822Y-110771255D01*
X149373547Y-111204413D01*
X149395548Y-111257527D01*
X149595003Y-111297728D01*
X150092732Y-110800000D01*
X149595003Y-110302272D01*
X149395548Y-110342473D01*
X149298822Y-110771255D01*
X148410001Y-110771255D01*
X148410001Y-109723000D01*
X147523001Y-109723000D01*
X147027001Y-109723000D01*
X146140001Y-109723000D01*
X126692443Y-109723000D01*
X126589315Y-109619692D01*
X126207577Y-109461181D01*
X125794237Y-109460820D01*
X125412223Y-109618665D01*
X125119692Y-109910685D01*
X124961181Y-110292423D01*
X124960820Y-110705763D01*
X123627000Y-110705763D01*
X123627000Y-109012941D01*
X125297784Y-109012941D01*
X125376201Y-109240509D01*
X125913714Y-109381753D01*
X126464364Y-109306549D01*
X126623799Y-109240509D01*
X126702216Y-109012941D01*
X126000000Y-108310725D01*
X125297784Y-109012941D01*
X123627000Y-109012941D01*
X123627000Y-107873714D01*
X124578247Y-107873714D01*
X124653451Y-108424364D01*
X124719491Y-108583799D01*
X124947059Y-108662216D01*
X125649275Y-107960000D01*
X126350725Y-107960000D01*
X127052941Y-108662216D01*
X127280509Y-108583799D01*
X127413682Y-108077000D01*
X146140001Y-108077000D01*
X146140001Y-109227000D01*
X147027001Y-109227000D01*
X147027001Y-107380775D01*
X147523001Y-107380775D01*
X147523001Y-109227000D01*
X148410001Y-109227000D01*
X148410001Y-108979998D01*
X149552273Y-108979998D01*
X149592474Y-109179453D01*
X149750944Y-109215201D01*
X149698822Y-109446255D01*
X149773547Y-109879413D01*
X149795548Y-109932527D01*
X149929389Y-109959503D01*
X149927273Y-109970002D01*
X150343682Y-110386412D01*
X150367474Y-110504453D01*
X150549534Y-110545523D01*
X150778123Y-110774112D01*
X150778119Y-110779151D01*
X150757270Y-110800000D01*
X150778082Y-110820812D01*
X150777971Y-110947916D01*
X150891440Y-111222532D01*
X151101364Y-111432822D01*
X151375782Y-111546770D01*
X151672917Y-111547030D01*
X151947533Y-111433561D01*
X152075039Y-111306277D01*
X152201364Y-111432822D01*
X152475782Y-111546770D01*
X152772917Y-111547030D01*
X153047533Y-111433561D01*
X153175039Y-111306277D01*
X153301364Y-111432822D01*
X153575782Y-111546770D01*
X153872917Y-111547030D01*
X154147533Y-111433561D01*
X154357823Y-111223637D01*
X154471771Y-110949219D01*
X154471948Y-110746898D01*
X154478147Y-110746903D01*
X154477971Y-110947916D01*
X154591440Y-111222532D01*
X154801364Y-111432822D01*
X155075782Y-111546770D01*
X155372917Y-111547030D01*
X155647533Y-111433561D01*
X155775039Y-111306277D01*
X155901364Y-111432822D01*
X156175782Y-111546770D01*
X156472917Y-111547030D01*
X156747533Y-111433561D01*
X156957823Y-111223637D01*
X157071771Y-110949219D01*
X157071948Y-110746898D01*
X157078147Y-110746903D01*
X157077971Y-110947916D01*
X157191440Y-111222532D01*
X157401364Y-111432822D01*
X157675782Y-111546770D01*
X157972917Y-111547030D01*
X158247533Y-111433561D01*
X158375039Y-111306277D01*
X158501364Y-111432822D01*
X158775782Y-111546770D01*
X159072917Y-111547030D01*
X159347533Y-111433561D01*
X159475039Y-111306277D01*
X159601364Y-111432822D01*
X159875782Y-111546770D01*
X160172917Y-111547030D01*
X160447533Y-111433561D01*
X160657823Y-111223637D01*
X160771771Y-110949219D01*
X160771883Y-110820849D01*
X160792732Y-110800000D01*
X161457270Y-110800000D01*
X161954999Y-111297728D01*
X162154454Y-111257527D01*
X162251180Y-110828745D01*
X162176455Y-110395587D01*
X162154454Y-110342473D01*
X161954999Y-110302272D01*
X161457270Y-110800000D01*
X160792732Y-110800000D01*
X160771920Y-110779188D01*
X160771924Y-110774067D01*
X160996630Y-110549361D01*
X161129414Y-110526454D01*
X161182528Y-110504453D01*
X161206320Y-110386412D01*
X161622729Y-109970002D01*
X161620613Y-109959503D01*
X161754454Y-109932527D01*
X161801719Y-109723000D01*
X163140001Y-109723000D01*
X163140001Y-110873000D01*
X163321303Y-111288468D01*
X163647797Y-111602929D01*
X163856792Y-111680142D01*
X164027001Y-111569225D01*
X164027001Y-109723000D01*
X164523001Y-109723000D01*
X164523001Y-111569225D01*
X164693210Y-111680142D01*
X164902205Y-111602929D01*
X165228699Y-111288468D01*
X165410001Y-110873000D01*
X165410001Y-109723000D01*
X164523001Y-109723000D01*
X164027001Y-109723000D01*
X163140001Y-109723000D01*
X161801719Y-109723000D01*
X161851180Y-109503745D01*
X161802077Y-109219108D01*
X161904414Y-109201454D01*
X161957528Y-109179453D01*
X161997729Y-108979998D01*
X161500001Y-108482269D01*
X161476631Y-108505640D01*
X161146879Y-108175888D01*
X161146883Y-108170849D01*
X161167732Y-108150000D01*
X161832270Y-108150000D01*
X162329999Y-108647728D01*
X162529454Y-108607527D01*
X162626180Y-108178745D01*
X162608628Y-108077000D01*
X163140001Y-108077000D01*
X163140001Y-109227000D01*
X164027001Y-109227000D01*
X164027001Y-107380775D01*
X164523001Y-107380775D01*
X164523001Y-109227000D01*
X165410001Y-109227000D01*
X165410001Y-108077000D01*
X165228699Y-107661532D01*
X164902205Y-107347071D01*
X164693210Y-107269858D01*
X164523001Y-107380775D01*
X164027001Y-107380775D01*
X163856792Y-107269858D01*
X163647797Y-107347071D01*
X163321303Y-107661532D01*
X163140001Y-108077000D01*
X162608628Y-108077000D01*
X162551455Y-107745587D01*
X162529454Y-107692473D01*
X162329999Y-107652272D01*
X161832270Y-108150000D01*
X161167732Y-108150000D01*
X161146920Y-108129188D01*
X161147031Y-108002084D01*
X161033562Y-107727468D01*
X160823638Y-107517178D01*
X160549220Y-107403230D01*
X160252085Y-107402970D01*
X159977469Y-107516439D01*
X159849963Y-107643723D01*
X159723638Y-107517178D01*
X159449220Y-107403230D01*
X159152085Y-107402970D01*
X158877469Y-107516439D01*
X158749963Y-107643723D01*
X158623638Y-107517178D01*
X158349220Y-107403230D01*
X158052085Y-107402970D01*
X157777469Y-107516439D01*
X157567179Y-107726363D01*
X157453231Y-108000781D01*
X157453054Y-108203102D01*
X157446855Y-108203097D01*
X157447031Y-108002084D01*
X157333562Y-107727468D01*
X157123638Y-107517178D01*
X156849220Y-107403230D01*
X156552085Y-107402970D01*
X156277469Y-107516439D01*
X156067179Y-107726363D01*
X155953231Y-108000781D01*
X155952971Y-108297916D01*
X156066440Y-108572532D01*
X156276364Y-108782822D01*
X156550782Y-108896770D01*
X156703147Y-108896903D01*
X156702971Y-109097916D01*
X156790378Y-109309456D01*
X156652469Y-109366439D01*
X156442179Y-109576363D01*
X156328231Y-109850781D01*
X156328054Y-110053102D01*
X156177085Y-110052970D01*
X155902469Y-110166439D01*
X155774963Y-110293723D01*
X155648638Y-110167178D01*
X155374220Y-110053230D01*
X155221855Y-110053097D01*
X155222031Y-109852084D01*
X155108562Y-109577468D01*
X154898638Y-109367178D01*
X154759496Y-109309401D01*
X154846771Y-109099219D01*
X154846948Y-108896898D01*
X154997917Y-108897030D01*
X155272533Y-108783561D01*
X155482823Y-108573637D01*
X155596771Y-108299219D01*
X155597031Y-108002084D01*
X155483562Y-107727468D01*
X155273638Y-107517178D01*
X154999220Y-107403230D01*
X154702085Y-107402970D01*
X154480981Y-107494328D01*
X154471400Y-107446161D01*
X154387103Y-107320002D01*
X161002273Y-107320002D01*
X161500001Y-107817731D01*
X161997729Y-107320002D01*
X161957528Y-107120547D01*
X161528746Y-107023821D01*
X161095588Y-107098546D01*
X161042474Y-107120547D01*
X161002273Y-107320002D01*
X154387103Y-107320002D01*
X154384257Y-107315743D01*
X153784257Y-106715743D01*
X153653839Y-106628600D01*
X153500000Y-106598000D01*
X152416514Y-106598000D01*
X151534257Y-105715743D01*
X151496414Y-105690457D01*
X151489442Y-105673583D01*
X151327271Y-105511129D01*
X151115276Y-105423100D01*
X150885731Y-105422900D01*
X150673583Y-105510558D01*
X150511129Y-105672729D01*
X150423100Y-105884724D01*
X150422900Y-106114269D01*
X150510558Y-106326417D01*
X150672729Y-106488871D01*
X150884724Y-106576900D01*
X151114269Y-106577100D01*
X151216390Y-106534904D01*
X151965743Y-107284257D01*
X152096161Y-107371400D01*
X152250000Y-107402000D01*
X153333486Y-107402000D01*
X153334572Y-107403086D01*
X153202085Y-107402970D01*
X152927469Y-107516439D01*
X152799963Y-107643723D01*
X152673638Y-107517178D01*
X152399220Y-107403230D01*
X152102085Y-107402970D01*
X151827469Y-107516439D01*
X151699963Y-107643723D01*
X151573638Y-107517178D01*
X151299220Y-107403230D01*
X151002085Y-107402970D01*
X150727469Y-107516439D01*
X150517179Y-107726363D01*
X150403231Y-108000781D01*
X150403119Y-108129151D01*
X150382270Y-108150000D01*
X150403082Y-108170812D01*
X150403078Y-108175933D01*
X150073371Y-108505640D01*
X150050001Y-108482269D01*
X149552273Y-108979998D01*
X148410001Y-108979998D01*
X148410001Y-108121255D01*
X148923822Y-108121255D01*
X148998547Y-108554413D01*
X149020548Y-108607527D01*
X149220003Y-108647728D01*
X149717732Y-108150000D01*
X149220003Y-107652272D01*
X149020548Y-107692473D01*
X148923822Y-108121255D01*
X148410001Y-108121255D01*
X148410001Y-108077000D01*
X148228699Y-107661532D01*
X147902205Y-107347071D01*
X147828937Y-107320002D01*
X149552273Y-107320002D01*
X150050001Y-107817731D01*
X150547729Y-107320002D01*
X150507528Y-107120547D01*
X150078746Y-107023821D01*
X149645588Y-107098546D01*
X149592474Y-107120547D01*
X149552273Y-107320002D01*
X147828937Y-107320002D01*
X147693210Y-107269858D01*
X147523001Y-107380775D01*
X147027001Y-107380775D01*
X146856792Y-107269858D01*
X146647797Y-107347071D01*
X146321303Y-107661532D01*
X146140001Y-108077000D01*
X127413682Y-108077000D01*
X127421753Y-108046286D01*
X127346549Y-107495636D01*
X127280509Y-107336201D01*
X127052941Y-107257784D01*
X126350725Y-107960000D01*
X125649275Y-107960000D01*
X124947059Y-107257784D01*
X124719491Y-107336201D01*
X124578247Y-107873714D01*
X123627000Y-107873714D01*
X123627000Y-106907059D01*
X125297784Y-106907059D01*
X126000000Y-107609275D01*
X126702216Y-106907059D01*
X126623799Y-106679491D01*
X126086286Y-106538247D01*
X125535636Y-106613451D01*
X125376201Y-106679491D01*
X125297784Y-106907059D01*
X123627000Y-106907059D01*
X123627000Y-103127000D01*
X166373000Y-103127000D01*
X166373000Y-115873000D01*
M02*
