G04 #@! TF.FileFunction,Copper,L1,Top,Signal*
%FSLAX46Y46*%
G04 Gerber Fmt 4.6, Leading zero omitted, Abs format (unit mm)*
G04 Created by KiCad (PCBNEW 4.0.7) date 04/04/18 17:14:32*
%MOMM*%
%LPD*%
G01*
G04 APERTURE LIST*
%ADD10C,0.100000*%
%ADD11C,0.939800*%
%ADD12O,1.000000X3.300000*%
%ADD13C,1.524000*%
%ADD14R,1.300000X0.700000*%
%ADD15C,0.600000*%
%ADD16C,0.250000*%
%ADD17C,0.750000*%
%ADD18C,0.254000*%
G04 APERTURE END LIST*
D10*
D11*
X154850001Y-108150000D03*
X153350001Y-108150000D03*
X152250001Y-108150000D03*
X151150001Y-108150000D03*
X150050001Y-108150000D03*
X156700001Y-108150000D03*
X158200001Y-108150000D03*
X159300001Y-108150000D03*
X160400001Y-108150000D03*
X161500001Y-108150000D03*
X155225001Y-110800000D03*
X156325001Y-110800000D03*
X153725001Y-110800000D03*
X152625001Y-110800000D03*
X151525001Y-110800000D03*
X150425001Y-110800000D03*
X157825001Y-110800000D03*
X158925001Y-110800000D03*
X160025001Y-110800000D03*
X161125001Y-110800000D03*
X154100001Y-108950000D03*
X154475001Y-110000000D03*
X157450001Y-108950000D03*
X157075001Y-110000000D03*
X153025001Y-109475000D03*
X151925001Y-109475000D03*
X150825001Y-109475000D03*
X158525001Y-109475000D03*
X159625001Y-109475000D03*
X160725001Y-109475000D03*
D12*
X164275001Y-109475000D03*
X147275001Y-109475000D03*
D13*
X126000000Y-107960000D03*
X126000000Y-110500000D03*
D14*
X140000000Y-108550000D03*
X140000000Y-110450000D03*
X136000000Y-108550000D03*
X136000000Y-110450000D03*
D15*
X133000000Y-110500000D03*
X142500000Y-110500000D03*
X151000000Y-106000000D03*
D16*
X136000000Y-110450000D02*
X133050000Y-110450000D01*
X133050000Y-110450000D02*
X133000000Y-110500000D01*
X140000000Y-110450000D02*
X142450000Y-110450000D01*
X142450000Y-110450000D02*
X142500000Y-110500000D01*
D17*
X153025001Y-109475000D02*
X151925001Y-109475000D01*
X151925001Y-109475000D02*
X150825001Y-109475000D01*
X159625001Y-109475000D02*
X160725001Y-109475000D01*
X158525001Y-109475000D02*
X159625001Y-109475000D01*
X150050001Y-108700000D02*
X150050001Y-108150000D01*
X150425001Y-109875000D02*
X150425001Y-110800000D01*
X161500001Y-108700000D02*
X161500001Y-108150000D01*
X160725001Y-109475000D02*
X161500001Y-108700000D01*
X161125001Y-109875000D02*
X161125001Y-110800000D01*
X160725001Y-109475000D02*
X161125001Y-109875000D01*
X150825001Y-109475000D02*
X150050001Y-108700000D01*
X150825001Y-109475000D02*
X150425001Y-109875000D01*
D16*
X140000000Y-107000000D02*
X140000000Y-108550000D01*
X141000000Y-106000000D02*
X140000000Y-107000000D01*
X151000000Y-106000000D02*
X141000000Y-106000000D01*
X150500000Y-105000000D02*
X137500000Y-105000000D01*
X156575001Y-109500000D02*
X156250000Y-109500000D01*
X156250000Y-109500000D02*
X155750000Y-109000000D01*
X155750000Y-109000000D02*
X155750000Y-107750000D01*
X155750000Y-107750000D02*
X155750000Y-107000000D01*
X157075001Y-110000000D02*
X156575001Y-109500000D01*
X153750000Y-105000000D02*
X150500000Y-105000000D01*
X155750000Y-107000000D02*
X153750000Y-105000000D01*
X136000000Y-106500000D02*
X136000000Y-108550000D01*
X137500000Y-105000000D02*
X136000000Y-106500000D01*
D18*
G36*
X166373000Y-115873000D02*
X123627000Y-115873000D01*
X123627000Y-111552941D01*
X125297784Y-111552941D01*
X125376201Y-111780509D01*
X125913714Y-111921753D01*
X126464364Y-111846549D01*
X126623799Y-111780509D01*
X126702216Y-111552941D01*
X126000000Y-110850725D01*
X125297784Y-111552941D01*
X123627000Y-111552941D01*
X123627000Y-110413714D01*
X124578247Y-110413714D01*
X124653451Y-110964364D01*
X124719491Y-111123799D01*
X124947059Y-111202216D01*
X125649275Y-110500000D01*
X126350725Y-110500000D01*
X127052941Y-111202216D01*
X127280509Y-111123799D01*
X127414399Y-110614269D01*
X132422900Y-110614269D01*
X132510558Y-110826417D01*
X132672729Y-110988871D01*
X132884724Y-111076900D01*
X133114269Y-111077100D01*
X133326417Y-110989442D01*
X133464099Y-110852000D01*
X135077359Y-110852000D01*
X135086889Y-110902650D01*
X135147555Y-110996927D01*
X135240120Y-111060175D01*
X135350000Y-111082426D01*
X136650000Y-111082426D01*
X136752650Y-111063111D01*
X136846927Y-111002445D01*
X136910175Y-110909880D01*
X136932426Y-110800000D01*
X136932426Y-110100000D01*
X139067574Y-110100000D01*
X139067574Y-110800000D01*
X139086889Y-110902650D01*
X139147555Y-110996927D01*
X139240120Y-111060175D01*
X139350000Y-111082426D01*
X140650000Y-111082426D01*
X140752650Y-111063111D01*
X140846927Y-111002445D01*
X140910175Y-110909880D01*
X140921896Y-110852000D01*
X142036096Y-110852000D01*
X142172729Y-110988871D01*
X142384724Y-111076900D01*
X142614269Y-111077100D01*
X142826417Y-110989442D01*
X142988871Y-110827271D01*
X143076900Y-110615276D01*
X143077100Y-110385731D01*
X142989442Y-110173583D01*
X142827271Y-110011129D01*
X142615276Y-109923100D01*
X142385731Y-109922900D01*
X142173583Y-110010558D01*
X142136076Y-110048000D01*
X140922641Y-110048000D01*
X140913111Y-109997350D01*
X140852445Y-109903073D01*
X140759880Y-109839825D01*
X140650000Y-109817574D01*
X139350000Y-109817574D01*
X139247350Y-109836889D01*
X139153073Y-109897555D01*
X139089825Y-109990120D01*
X139067574Y-110100000D01*
X136932426Y-110100000D01*
X136913111Y-109997350D01*
X136852445Y-109903073D01*
X136759880Y-109839825D01*
X136650000Y-109817574D01*
X135350000Y-109817574D01*
X135247350Y-109836889D01*
X135153073Y-109897555D01*
X135089825Y-109990120D01*
X135078104Y-110048000D01*
X133364078Y-110048000D01*
X133327271Y-110011129D01*
X133115276Y-109923100D01*
X132885731Y-109922900D01*
X132673583Y-110010558D01*
X132511129Y-110172729D01*
X132423100Y-110384724D01*
X132422900Y-110614269D01*
X127414399Y-110614269D01*
X127421753Y-110586286D01*
X127346549Y-110035636D01*
X127280509Y-109876201D01*
X127052941Y-109797784D01*
X126350725Y-110500000D01*
X125649275Y-110500000D01*
X124947059Y-109797784D01*
X124719491Y-109876201D01*
X124578247Y-110413714D01*
X123627000Y-110413714D01*
X123627000Y-109447059D01*
X125297784Y-109447059D01*
X126000000Y-110149275D01*
X126702216Y-109447059D01*
X126623799Y-109219491D01*
X126086286Y-109078247D01*
X125535636Y-109153451D01*
X125376201Y-109219491D01*
X125297784Y-109447059D01*
X123627000Y-109447059D01*
X123627000Y-108165763D01*
X124960820Y-108165763D01*
X125118665Y-108547777D01*
X125410685Y-108840308D01*
X125792423Y-108998819D01*
X126205763Y-108999180D01*
X126587777Y-108841335D01*
X126880308Y-108549315D01*
X127025355Y-108200000D01*
X135067574Y-108200000D01*
X135067574Y-108900000D01*
X135086889Y-109002650D01*
X135147555Y-109096927D01*
X135240120Y-109160175D01*
X135350000Y-109182426D01*
X136650000Y-109182426D01*
X136752650Y-109163111D01*
X136846927Y-109102445D01*
X136910175Y-109009880D01*
X136932426Y-108900000D01*
X136932426Y-108200000D01*
X139067574Y-108200000D01*
X139067574Y-108900000D01*
X139086889Y-109002650D01*
X139147555Y-109096927D01*
X139240120Y-109160175D01*
X139350000Y-109182426D01*
X140650000Y-109182426D01*
X140752650Y-109163111D01*
X140846927Y-109102445D01*
X140910175Y-109009880D01*
X140932426Y-108900000D01*
X140932426Y-108287248D01*
X146498001Y-108287248D01*
X146498001Y-110662752D01*
X146557147Y-110960097D01*
X146725579Y-111212174D01*
X146977656Y-111380606D01*
X147275001Y-111439752D01*
X147572346Y-111380606D01*
X147824423Y-111212174D01*
X147992855Y-110960097D01*
X148052001Y-110662752D01*
X148052001Y-108287248D01*
X147992855Y-107989903D01*
X147824423Y-107737826D01*
X147572346Y-107569394D01*
X147275001Y-107510248D01*
X146977656Y-107569394D01*
X146725579Y-107737826D01*
X146557147Y-107989903D01*
X146498001Y-108287248D01*
X140932426Y-108287248D01*
X140932426Y-108200000D01*
X140913111Y-108097350D01*
X140852445Y-108003073D01*
X140759880Y-107939825D01*
X140650000Y-107917574D01*
X140402000Y-107917574D01*
X140402000Y-107166514D01*
X141166514Y-106402000D01*
X150586009Y-106402000D01*
X150672729Y-106488871D01*
X150884724Y-106576900D01*
X151114269Y-106577100D01*
X151326417Y-106489442D01*
X151488871Y-106327271D01*
X151576900Y-106115276D01*
X151577100Y-105885731D01*
X151489442Y-105673583D01*
X151327271Y-105511129D01*
X151115276Y-105423100D01*
X150885731Y-105422900D01*
X150673583Y-105510558D01*
X150585988Y-105598000D01*
X141000000Y-105598000D01*
X140846161Y-105628600D01*
X140715743Y-105715743D01*
X139715743Y-106715743D01*
X139628600Y-106846161D01*
X139598000Y-107000000D01*
X139598000Y-107917574D01*
X139350000Y-107917574D01*
X139247350Y-107936889D01*
X139153073Y-107997555D01*
X139089825Y-108090120D01*
X139067574Y-108200000D01*
X136932426Y-108200000D01*
X136913111Y-108097350D01*
X136852445Y-108003073D01*
X136759880Y-107939825D01*
X136650000Y-107917574D01*
X136402000Y-107917574D01*
X136402000Y-106666514D01*
X137666514Y-105402000D01*
X153583486Y-105402000D01*
X155348000Y-107166514D01*
X155348000Y-107591670D01*
X155273638Y-107517178D01*
X154999220Y-107403230D01*
X154702085Y-107402970D01*
X154427469Y-107516439D01*
X154272685Y-107670953D01*
X154179999Y-107652272D01*
X153682270Y-108150000D01*
X153705641Y-108173370D01*
X153373372Y-108505640D01*
X153350001Y-108482269D01*
X153326631Y-108505640D01*
X152996879Y-108175888D01*
X152996883Y-108170849D01*
X153017732Y-108150000D01*
X152996920Y-108129188D01*
X152997031Y-108002084D01*
X152883562Y-107727468D01*
X152673638Y-107517178D01*
X152399220Y-107403230D01*
X152102085Y-107402970D01*
X151827469Y-107516439D01*
X151699963Y-107643723D01*
X151627000Y-107570633D01*
X151627000Y-107320002D01*
X152852273Y-107320002D01*
X153350001Y-107817731D01*
X153847729Y-107320002D01*
X153807528Y-107120547D01*
X153378746Y-107023821D01*
X152945588Y-107098546D01*
X152892474Y-107120547D01*
X152852273Y-107320002D01*
X151627000Y-107320002D01*
X151627000Y-107000000D01*
X151618315Y-106953841D01*
X151591035Y-106911447D01*
X151549410Y-106883006D01*
X151500000Y-106873000D01*
X149000000Y-106873000D01*
X148953841Y-106881685D01*
X148911447Y-106908965D01*
X148883006Y-106950590D01*
X148873000Y-107000000D01*
X148873000Y-112000000D01*
X148881685Y-112046159D01*
X148908965Y-112088553D01*
X148950590Y-112116994D01*
X149000000Y-112127000D01*
X151500000Y-112127000D01*
X151546159Y-112118315D01*
X151588553Y-112091035D01*
X151616994Y-112049410D01*
X151627000Y-112000000D01*
X151627000Y-111629998D01*
X153227273Y-111629998D01*
X153267474Y-111829453D01*
X153696256Y-111926179D01*
X154129414Y-111851454D01*
X154182528Y-111829453D01*
X154222729Y-111629998D01*
X157327273Y-111629998D01*
X157367474Y-111829453D01*
X157796256Y-111926179D01*
X158229414Y-111851454D01*
X158282528Y-111829453D01*
X158322729Y-111629998D01*
X157825001Y-111132269D01*
X157327273Y-111629998D01*
X154222729Y-111629998D01*
X153725001Y-111132269D01*
X153227273Y-111629998D01*
X151627000Y-111629998D01*
X151627000Y-111546990D01*
X151672917Y-111547030D01*
X151947533Y-111433561D01*
X152075039Y-111306277D01*
X152201364Y-111432822D01*
X152475782Y-111546770D01*
X152772917Y-111547030D01*
X153047533Y-111433561D01*
X153257823Y-111223637D01*
X153371771Y-110949219D01*
X153371883Y-110820849D01*
X153392732Y-110800000D01*
X153371920Y-110779188D01*
X153371924Y-110774067D01*
X153701631Y-110444360D01*
X153725001Y-110467731D01*
X153748372Y-110444361D01*
X154080641Y-110776630D01*
X154057270Y-110800000D01*
X154554999Y-111297728D01*
X154647828Y-111279018D01*
X154801364Y-111432822D01*
X155075782Y-111546770D01*
X155372917Y-111547030D01*
X155647533Y-111433561D01*
X155775039Y-111306277D01*
X155901364Y-111432822D01*
X156175782Y-111546770D01*
X156472917Y-111547030D01*
X156747533Y-111433561D01*
X156902317Y-111279047D01*
X156995003Y-111297728D01*
X157492732Y-110800000D01*
X157469361Y-110776630D01*
X157801631Y-110444361D01*
X157825001Y-110467731D01*
X157848372Y-110444361D01*
X158178123Y-110774112D01*
X158178119Y-110779151D01*
X158157270Y-110800000D01*
X158178082Y-110820812D01*
X158177971Y-110947916D01*
X158291440Y-111222532D01*
X158501364Y-111432822D01*
X158775782Y-111546770D01*
X159072917Y-111547030D01*
X159347533Y-111433561D01*
X159475039Y-111306277D01*
X159601364Y-111432822D01*
X159873000Y-111545615D01*
X159873000Y-112000000D01*
X159881685Y-112046159D01*
X159908965Y-112088553D01*
X159950590Y-112116994D01*
X160000000Y-112127000D01*
X162500000Y-112127000D01*
X162546159Y-112118315D01*
X162588553Y-112091035D01*
X162616994Y-112049410D01*
X162627000Y-112000000D01*
X162627000Y-108287248D01*
X163498001Y-108287248D01*
X163498001Y-110662752D01*
X163557147Y-110960097D01*
X163725579Y-111212174D01*
X163977656Y-111380606D01*
X164275001Y-111439752D01*
X164572346Y-111380606D01*
X164824423Y-111212174D01*
X164992855Y-110960097D01*
X165052001Y-110662752D01*
X165052001Y-108287248D01*
X164992855Y-107989903D01*
X164824423Y-107737826D01*
X164572346Y-107569394D01*
X164275001Y-107510248D01*
X163977656Y-107569394D01*
X163725579Y-107737826D01*
X163557147Y-107989903D01*
X163498001Y-108287248D01*
X162627000Y-108287248D01*
X162627000Y-107000000D01*
X162618315Y-106953841D01*
X162591035Y-106911447D01*
X162549410Y-106883006D01*
X162500000Y-106873000D01*
X160000000Y-106873000D01*
X159953841Y-106881685D01*
X159911447Y-106908965D01*
X159883006Y-106950590D01*
X159873000Y-107000000D01*
X159873000Y-107620726D01*
X159849963Y-107643723D01*
X159723638Y-107517178D01*
X159449220Y-107403230D01*
X159152085Y-107402970D01*
X158877469Y-107516439D01*
X158667179Y-107726363D01*
X158553231Y-108000781D01*
X158553119Y-108129151D01*
X158532270Y-108150000D01*
X158553082Y-108170812D01*
X158553078Y-108175933D01*
X158223372Y-108505640D01*
X158200001Y-108482269D01*
X158176631Y-108505640D01*
X157844361Y-108173370D01*
X157867732Y-108150000D01*
X157370003Y-107652272D01*
X157277174Y-107670982D01*
X157123638Y-107517178D01*
X156849220Y-107403230D01*
X156552085Y-107402970D01*
X156277469Y-107516439D01*
X156152000Y-107641690D01*
X156152000Y-107320002D01*
X157702273Y-107320002D01*
X158200001Y-107817731D01*
X158697729Y-107320002D01*
X158657528Y-107120547D01*
X158228746Y-107023821D01*
X157795588Y-107098546D01*
X157742474Y-107120547D01*
X157702273Y-107320002D01*
X156152000Y-107320002D01*
X156152000Y-107000000D01*
X156121400Y-106846161D01*
X156034257Y-106715743D01*
X154034257Y-104715743D01*
X153903839Y-104628600D01*
X153750000Y-104598000D01*
X137500000Y-104598000D01*
X137346161Y-104628600D01*
X137215743Y-104715743D01*
X135715743Y-106215743D01*
X135628600Y-106346161D01*
X135598000Y-106500000D01*
X135598000Y-107917574D01*
X135350000Y-107917574D01*
X135247350Y-107936889D01*
X135153073Y-107997555D01*
X135089825Y-108090120D01*
X135067574Y-108200000D01*
X127025355Y-108200000D01*
X127038819Y-108167577D01*
X127039180Y-107754237D01*
X126881335Y-107372223D01*
X126589315Y-107079692D01*
X126207577Y-106921181D01*
X125794237Y-106920820D01*
X125412223Y-107078665D01*
X125119692Y-107370685D01*
X124961181Y-107752423D01*
X124960820Y-108165763D01*
X123627000Y-108165763D01*
X123627000Y-103127000D01*
X166373000Y-103127000D01*
X166373000Y-115873000D01*
X166373000Y-115873000D01*
G37*
X166373000Y-115873000D02*
X123627000Y-115873000D01*
X123627000Y-111552941D01*
X125297784Y-111552941D01*
X125376201Y-111780509D01*
X125913714Y-111921753D01*
X126464364Y-111846549D01*
X126623799Y-111780509D01*
X126702216Y-111552941D01*
X126000000Y-110850725D01*
X125297784Y-111552941D01*
X123627000Y-111552941D01*
X123627000Y-110413714D01*
X124578247Y-110413714D01*
X124653451Y-110964364D01*
X124719491Y-111123799D01*
X124947059Y-111202216D01*
X125649275Y-110500000D01*
X126350725Y-110500000D01*
X127052941Y-111202216D01*
X127280509Y-111123799D01*
X127414399Y-110614269D01*
X132422900Y-110614269D01*
X132510558Y-110826417D01*
X132672729Y-110988871D01*
X132884724Y-111076900D01*
X133114269Y-111077100D01*
X133326417Y-110989442D01*
X133464099Y-110852000D01*
X135077359Y-110852000D01*
X135086889Y-110902650D01*
X135147555Y-110996927D01*
X135240120Y-111060175D01*
X135350000Y-111082426D01*
X136650000Y-111082426D01*
X136752650Y-111063111D01*
X136846927Y-111002445D01*
X136910175Y-110909880D01*
X136932426Y-110800000D01*
X136932426Y-110100000D01*
X139067574Y-110100000D01*
X139067574Y-110800000D01*
X139086889Y-110902650D01*
X139147555Y-110996927D01*
X139240120Y-111060175D01*
X139350000Y-111082426D01*
X140650000Y-111082426D01*
X140752650Y-111063111D01*
X140846927Y-111002445D01*
X140910175Y-110909880D01*
X140921896Y-110852000D01*
X142036096Y-110852000D01*
X142172729Y-110988871D01*
X142384724Y-111076900D01*
X142614269Y-111077100D01*
X142826417Y-110989442D01*
X142988871Y-110827271D01*
X143076900Y-110615276D01*
X143077100Y-110385731D01*
X142989442Y-110173583D01*
X142827271Y-110011129D01*
X142615276Y-109923100D01*
X142385731Y-109922900D01*
X142173583Y-110010558D01*
X142136076Y-110048000D01*
X140922641Y-110048000D01*
X140913111Y-109997350D01*
X140852445Y-109903073D01*
X140759880Y-109839825D01*
X140650000Y-109817574D01*
X139350000Y-109817574D01*
X139247350Y-109836889D01*
X139153073Y-109897555D01*
X139089825Y-109990120D01*
X139067574Y-110100000D01*
X136932426Y-110100000D01*
X136913111Y-109997350D01*
X136852445Y-109903073D01*
X136759880Y-109839825D01*
X136650000Y-109817574D01*
X135350000Y-109817574D01*
X135247350Y-109836889D01*
X135153073Y-109897555D01*
X135089825Y-109990120D01*
X135078104Y-110048000D01*
X133364078Y-110048000D01*
X133327271Y-110011129D01*
X133115276Y-109923100D01*
X132885731Y-109922900D01*
X132673583Y-110010558D01*
X132511129Y-110172729D01*
X132423100Y-110384724D01*
X132422900Y-110614269D01*
X127414399Y-110614269D01*
X127421753Y-110586286D01*
X127346549Y-110035636D01*
X127280509Y-109876201D01*
X127052941Y-109797784D01*
X126350725Y-110500000D01*
X125649275Y-110500000D01*
X124947059Y-109797784D01*
X124719491Y-109876201D01*
X124578247Y-110413714D01*
X123627000Y-110413714D01*
X123627000Y-109447059D01*
X125297784Y-109447059D01*
X126000000Y-110149275D01*
X126702216Y-109447059D01*
X126623799Y-109219491D01*
X126086286Y-109078247D01*
X125535636Y-109153451D01*
X125376201Y-109219491D01*
X125297784Y-109447059D01*
X123627000Y-109447059D01*
X123627000Y-108165763D01*
X124960820Y-108165763D01*
X125118665Y-108547777D01*
X125410685Y-108840308D01*
X125792423Y-108998819D01*
X126205763Y-108999180D01*
X126587777Y-108841335D01*
X126880308Y-108549315D01*
X127025355Y-108200000D01*
X135067574Y-108200000D01*
X135067574Y-108900000D01*
X135086889Y-109002650D01*
X135147555Y-109096927D01*
X135240120Y-109160175D01*
X135350000Y-109182426D01*
X136650000Y-109182426D01*
X136752650Y-109163111D01*
X136846927Y-109102445D01*
X136910175Y-109009880D01*
X136932426Y-108900000D01*
X136932426Y-108200000D01*
X139067574Y-108200000D01*
X139067574Y-108900000D01*
X139086889Y-109002650D01*
X139147555Y-109096927D01*
X139240120Y-109160175D01*
X139350000Y-109182426D01*
X140650000Y-109182426D01*
X140752650Y-109163111D01*
X140846927Y-109102445D01*
X140910175Y-109009880D01*
X140932426Y-108900000D01*
X140932426Y-108287248D01*
X146498001Y-108287248D01*
X146498001Y-110662752D01*
X146557147Y-110960097D01*
X146725579Y-111212174D01*
X146977656Y-111380606D01*
X147275001Y-111439752D01*
X147572346Y-111380606D01*
X147824423Y-111212174D01*
X147992855Y-110960097D01*
X148052001Y-110662752D01*
X148052001Y-108287248D01*
X147992855Y-107989903D01*
X147824423Y-107737826D01*
X147572346Y-107569394D01*
X147275001Y-107510248D01*
X146977656Y-107569394D01*
X146725579Y-107737826D01*
X146557147Y-107989903D01*
X146498001Y-108287248D01*
X140932426Y-108287248D01*
X140932426Y-108200000D01*
X140913111Y-108097350D01*
X140852445Y-108003073D01*
X140759880Y-107939825D01*
X140650000Y-107917574D01*
X140402000Y-107917574D01*
X140402000Y-107166514D01*
X141166514Y-106402000D01*
X150586009Y-106402000D01*
X150672729Y-106488871D01*
X150884724Y-106576900D01*
X151114269Y-106577100D01*
X151326417Y-106489442D01*
X151488871Y-106327271D01*
X151576900Y-106115276D01*
X151577100Y-105885731D01*
X151489442Y-105673583D01*
X151327271Y-105511129D01*
X151115276Y-105423100D01*
X150885731Y-105422900D01*
X150673583Y-105510558D01*
X150585988Y-105598000D01*
X141000000Y-105598000D01*
X140846161Y-105628600D01*
X140715743Y-105715743D01*
X139715743Y-106715743D01*
X139628600Y-106846161D01*
X139598000Y-107000000D01*
X139598000Y-107917574D01*
X139350000Y-107917574D01*
X139247350Y-107936889D01*
X139153073Y-107997555D01*
X139089825Y-108090120D01*
X139067574Y-108200000D01*
X136932426Y-108200000D01*
X136913111Y-108097350D01*
X136852445Y-108003073D01*
X136759880Y-107939825D01*
X136650000Y-107917574D01*
X136402000Y-107917574D01*
X136402000Y-106666514D01*
X137666514Y-105402000D01*
X153583486Y-105402000D01*
X155348000Y-107166514D01*
X155348000Y-107591670D01*
X155273638Y-107517178D01*
X154999220Y-107403230D01*
X154702085Y-107402970D01*
X154427469Y-107516439D01*
X154272685Y-107670953D01*
X154179999Y-107652272D01*
X153682270Y-108150000D01*
X153705641Y-108173370D01*
X153373372Y-108505640D01*
X153350001Y-108482269D01*
X153326631Y-108505640D01*
X152996879Y-108175888D01*
X152996883Y-108170849D01*
X153017732Y-108150000D01*
X152996920Y-108129188D01*
X152997031Y-108002084D01*
X152883562Y-107727468D01*
X152673638Y-107517178D01*
X152399220Y-107403230D01*
X152102085Y-107402970D01*
X151827469Y-107516439D01*
X151699963Y-107643723D01*
X151627000Y-107570633D01*
X151627000Y-107320002D01*
X152852273Y-107320002D01*
X153350001Y-107817731D01*
X153847729Y-107320002D01*
X153807528Y-107120547D01*
X153378746Y-107023821D01*
X152945588Y-107098546D01*
X152892474Y-107120547D01*
X152852273Y-107320002D01*
X151627000Y-107320002D01*
X151627000Y-107000000D01*
X151618315Y-106953841D01*
X151591035Y-106911447D01*
X151549410Y-106883006D01*
X151500000Y-106873000D01*
X149000000Y-106873000D01*
X148953841Y-106881685D01*
X148911447Y-106908965D01*
X148883006Y-106950590D01*
X148873000Y-107000000D01*
X148873000Y-112000000D01*
X148881685Y-112046159D01*
X148908965Y-112088553D01*
X148950590Y-112116994D01*
X149000000Y-112127000D01*
X151500000Y-112127000D01*
X151546159Y-112118315D01*
X151588553Y-112091035D01*
X151616994Y-112049410D01*
X151627000Y-112000000D01*
X151627000Y-111629998D01*
X153227273Y-111629998D01*
X153267474Y-111829453D01*
X153696256Y-111926179D01*
X154129414Y-111851454D01*
X154182528Y-111829453D01*
X154222729Y-111629998D01*
X157327273Y-111629998D01*
X157367474Y-111829453D01*
X157796256Y-111926179D01*
X158229414Y-111851454D01*
X158282528Y-111829453D01*
X158322729Y-111629998D01*
X157825001Y-111132269D01*
X157327273Y-111629998D01*
X154222729Y-111629998D01*
X153725001Y-111132269D01*
X153227273Y-111629998D01*
X151627000Y-111629998D01*
X151627000Y-111546990D01*
X151672917Y-111547030D01*
X151947533Y-111433561D01*
X152075039Y-111306277D01*
X152201364Y-111432822D01*
X152475782Y-111546770D01*
X152772917Y-111547030D01*
X153047533Y-111433561D01*
X153257823Y-111223637D01*
X153371771Y-110949219D01*
X153371883Y-110820849D01*
X153392732Y-110800000D01*
X153371920Y-110779188D01*
X153371924Y-110774067D01*
X153701631Y-110444360D01*
X153725001Y-110467731D01*
X153748372Y-110444361D01*
X154080641Y-110776630D01*
X154057270Y-110800000D01*
X154554999Y-111297728D01*
X154647828Y-111279018D01*
X154801364Y-111432822D01*
X155075782Y-111546770D01*
X155372917Y-111547030D01*
X155647533Y-111433561D01*
X155775039Y-111306277D01*
X155901364Y-111432822D01*
X156175782Y-111546770D01*
X156472917Y-111547030D01*
X156747533Y-111433561D01*
X156902317Y-111279047D01*
X156995003Y-111297728D01*
X157492732Y-110800000D01*
X157469361Y-110776630D01*
X157801631Y-110444361D01*
X157825001Y-110467731D01*
X157848372Y-110444361D01*
X158178123Y-110774112D01*
X158178119Y-110779151D01*
X158157270Y-110800000D01*
X158178082Y-110820812D01*
X158177971Y-110947916D01*
X158291440Y-111222532D01*
X158501364Y-111432822D01*
X158775782Y-111546770D01*
X159072917Y-111547030D01*
X159347533Y-111433561D01*
X159475039Y-111306277D01*
X159601364Y-111432822D01*
X159873000Y-111545615D01*
X159873000Y-112000000D01*
X159881685Y-112046159D01*
X159908965Y-112088553D01*
X159950590Y-112116994D01*
X160000000Y-112127000D01*
X162500000Y-112127000D01*
X162546159Y-112118315D01*
X162588553Y-112091035D01*
X162616994Y-112049410D01*
X162627000Y-112000000D01*
X162627000Y-108287248D01*
X163498001Y-108287248D01*
X163498001Y-110662752D01*
X163557147Y-110960097D01*
X163725579Y-111212174D01*
X163977656Y-111380606D01*
X164275001Y-111439752D01*
X164572346Y-111380606D01*
X164824423Y-111212174D01*
X164992855Y-110960097D01*
X165052001Y-110662752D01*
X165052001Y-108287248D01*
X164992855Y-107989903D01*
X164824423Y-107737826D01*
X164572346Y-107569394D01*
X164275001Y-107510248D01*
X163977656Y-107569394D01*
X163725579Y-107737826D01*
X163557147Y-107989903D01*
X163498001Y-108287248D01*
X162627000Y-108287248D01*
X162627000Y-107000000D01*
X162618315Y-106953841D01*
X162591035Y-106911447D01*
X162549410Y-106883006D01*
X162500000Y-106873000D01*
X160000000Y-106873000D01*
X159953841Y-106881685D01*
X159911447Y-106908965D01*
X159883006Y-106950590D01*
X159873000Y-107000000D01*
X159873000Y-107620726D01*
X159849963Y-107643723D01*
X159723638Y-107517178D01*
X159449220Y-107403230D01*
X159152085Y-107402970D01*
X158877469Y-107516439D01*
X158667179Y-107726363D01*
X158553231Y-108000781D01*
X158553119Y-108129151D01*
X158532270Y-108150000D01*
X158553082Y-108170812D01*
X158553078Y-108175933D01*
X158223372Y-108505640D01*
X158200001Y-108482269D01*
X158176631Y-108505640D01*
X157844361Y-108173370D01*
X157867732Y-108150000D01*
X157370003Y-107652272D01*
X157277174Y-107670982D01*
X157123638Y-107517178D01*
X156849220Y-107403230D01*
X156552085Y-107402970D01*
X156277469Y-107516439D01*
X156152000Y-107641690D01*
X156152000Y-107320002D01*
X157702273Y-107320002D01*
X158200001Y-107817731D01*
X158697729Y-107320002D01*
X158657528Y-107120547D01*
X158228746Y-107023821D01*
X157795588Y-107098546D01*
X157742474Y-107120547D01*
X157702273Y-107320002D01*
X156152000Y-107320002D01*
X156152000Y-107000000D01*
X156121400Y-106846161D01*
X156034257Y-106715743D01*
X154034257Y-104715743D01*
X153903839Y-104628600D01*
X153750000Y-104598000D01*
X137500000Y-104598000D01*
X137346161Y-104628600D01*
X137215743Y-104715743D01*
X135715743Y-106215743D01*
X135628600Y-106346161D01*
X135598000Y-106500000D01*
X135598000Y-107917574D01*
X135350000Y-107917574D01*
X135247350Y-107936889D01*
X135153073Y-107997555D01*
X135089825Y-108090120D01*
X135067574Y-108200000D01*
X127025355Y-108200000D01*
X127038819Y-108167577D01*
X127039180Y-107754237D01*
X126881335Y-107372223D01*
X126589315Y-107079692D01*
X126207577Y-106921181D01*
X125794237Y-106920820D01*
X125412223Y-107078665D01*
X125119692Y-107370685D01*
X124961181Y-107752423D01*
X124960820Y-108165763D01*
X123627000Y-108165763D01*
X123627000Y-103127000D01*
X166373000Y-103127000D01*
X166373000Y-115873000D01*
M02*
